<?xml version="1.0" encoding="UTF-8" standalone="no"?>
<svg viewBox="0 0 549.17999 748.06" xmlns="http://www.w3.org/2000/svg" xmlns:xlink="http://www.w3.org/1999/xlink">
<defs>
<linearGradient id="linearGradient3796">
<stop offset="0" stop-color="#4494a7"/>
<stop offset="1" stop-color="#4494a7" stop-opacity="0"/>
</linearGradient>
<linearGradient gradientUnits="userSpaceOnUse" id="linearGradient3815" x1="128.55009" x2="576.52484" xlink:href="#linearGradient3796"/>
<linearGradient gradientUnits="userSpaceOnUse" id="linearGradient3817" x1="567.43925" x2="119.46446" xlink:href="#linearGradient3796"/>
<linearGradient gradientUnits="userSpaceOnUse" id="linearGradient3819" x1="576.52487" x2="128.55011" xlink:href="#linearGradient3796"/>
<linearGradient gradientUnits="userSpaceOnUse" id="linearGradient3821" x1="119.46448" x2="567.43927" xlink:href="#linearGradient3796"/>
</defs>
<g transform="translate(-73.57242,-130.90471)">
<path d="m94.28125,146.65625v711.40625h505.71875v-711.40625h-505.71875zm21.28125,29.90625h463.1875v651.59375h-463.1875v-651.59375z" fill="#a0cdd8" stroke="#4494a7" stroke-dasharray="4, 4" stroke-width="4"/>
<path d="m138.57143,169.50505c-2.08207,4.03401-12.1532-1.66994-16.20876.36984s-5.48082,13.52591-9.96079,12.79232-2.16735-12.07442-5.36053-15.30117-14.55757-1.03283-15.24427-5.52023 10.81371-5.79246 12.89578-9.82648-3.51625-14.16423.53931-16.20401 8.85058,8.49448 13.33055,9.22807 12.38441-7.72115 15.57759-4.4944-5.34375,11.04234-4.65704,15.52974 11.17023,9.39231 9.08816,13.42632z" fill="#4494a7" transform="matrix(1.44719,.31607,-.31607,1.44719,-6.11281,-95.78619)"/>
<path d="m138.57143,169.50505c-2.08207,4.03401-12.1532-1.66994-16.20876.36984s-5.48082,13.52591-9.96079,12.79232-2.16735-12.07442-5.36053-15.30117-14.55757-1.03283-15.24427-5.52023 10.81371-5.79246 12.89578-9.82648-3.51625-14.16423.53931-16.20401 8.85058,8.49448 13.33055,9.22807 12.38441-7.72115 15.57759-4.4944-5.34375,11.04234-4.65704,15.52974 11.17023,9.39231 9.08816,13.42632z" fill="#4494a7" transform="matrix(.70282,1.30396,-1.30396,.70282,710.58583,-95.47036)"/>
<path d="m138.57143,169.50505c-2.08207,4.03401-12.1532-1.66994-16.20876.36984s-5.48082,13.52591-9.96079,12.79232-2.16735-12.07442-5.36053-15.30117-14.55757-1.03283-15.24427-5.52023 10.81371-5.79246 12.89578-9.82648-3.51625-14.16423.53931-16.20401 8.85058,8.49448 13.33055,9.22807 12.38441-7.72115 15.57759-4.4944-5.34375,11.04234-4.65704,15.52974 11.17023,9.39231 9.08816,13.42632z" fill="#4494a7" transform="matrix(1.34656,-.61728,.61728,1.34656,-147.21219,700.2428)"/>
<path d="m138.57143,169.50505c-2.08207,4.03401-12.1532-1.66994-16.20876.36984s-5.48082,13.52591-9.96079,12.79232-2.16735-12.07442-5.36053-15.30117-14.55757-1.03283-15.24427-5.52023 10.81371-5.79246 12.89578-9.82648-3.51625-14.16423.53931-16.20401 8.85058,8.49448 13.33055,9.22807 12.38441-7.72115 15.57759-4.4944-5.34375,11.04234-4.65704,15.52974 11.17023,9.39231 9.08816,13.42632z" fill="#4494a7" transform="matrix(1.48077,-.0399,.0399,1.48077,409.14974,610.45459)"/>
<path d="m128.5501,167.26739c14.91285-11.52141 35.45821-20.64923 54.54682-11.81841 19.21931,8.89128 42.45352,7.02131 63.13553-.74722 25.37878-9.53272 50.08336,17.92025 77.53072,10.89059 23.14954-5.92892 46.62951-21.1986 71.32129-11.93243 21.99664,8.25475 46.15945,22.31604 70.03944,12.40033 16.97985-7.05056 36.64639-18.51306 55.12412-8.15283 16.93529,9.4954 41.25428-.50551 56.27685,3.24393-7.1645,6.95495-20.22637,1.61948-30.87866,4.90437-19.22963,5.92992-42.07451-17.45979-62.60736-6.2599-19.59271,10.68708-43.50319,17.27002-64.98617,7.45364-20.005-9.14103-43.73666-19.56814-65.79872-8.49453-25.98147,13.04087-58.39599,13.30212-85.4439-.15201-20.03103-9.9638-41.19751,9.02062-62.922,6.21426-18.45903-2.38453-36.35382-17.37085-55.2845-7.8104-6.70963,3.38852-13.39622,6.79095-20.05346,10.26061z" fill="url(#linearGradient3815)"/>
<path d="m567.43925,849.27293c-14.91285-11.52141-35.45821-20.64923-54.54682-11.81841-19.21931,8.89128-42.45352,7.02131-63.13553-.74722-25.37878-9.53272-50.08336,17.92025-77.53072,10.89059-23.14954-5.92892-46.62951-21.1986-71.32129-11.93243-21.99664,8.25475-46.15945,22.31604-70.03944,12.40033-16.97985-7.05056-36.64639-18.51306-55.12412-8.15283-16.93529,9.4954-41.25428-.50551-56.27685,3.24393 7.1645,6.95495 20.22637,1.61948 30.87866,4.90437 19.22963,5.92992 42.07451-17.45979 62.60736-6.2599 19.59271,10.68708 43.50319,17.27002 64.98617,7.45364 20.005-9.14103 43.73666-19.56814 65.79872-8.49453 25.98147,13.04087 58.39599,13.30212 85.4439-.15201 20.03103-9.9638 41.19751,9.02062 62.922,6.21426 18.45903-2.38453 36.35382-17.37085 55.2845-7.8104 6.70963,3.38852 13.39622,6.79095 20.05346,10.26061z" fill="url(#linearGradient3817)"/>
<path d="m576.52487,167.26739c-14.91285-11.52141-35.45821-20.64923-54.54682-11.81841-19.21931,8.89128-42.45352,7.02131-63.13553-.74722-25.37878-9.53272-50.08336,17.92025-77.53072,10.89059-23.14954-5.92892-46.62951-21.1986-71.32129-11.93243-21.99664,8.25475-46.15945,22.31604-70.03944,12.40033-16.97985-7.05056-36.64639-18.51306-55.12412-8.15283-16.93529,9.4954-41.25428-.50551-56.27685,3.24393 7.1645,6.95495 20.22637,1.61948 30.87866,4.90437 19.22963,5.92992 42.07451-17.45979 62.60736-6.2599 19.59271,10.68708 43.50319,17.27002 64.98617,7.45364 20.005-9.14103 43.73666-19.56814 65.79872-8.49453 25.98147,13.04087 58.39599,13.30212 85.4439-.15201 20.03103-9.9638 41.19751,9.02062 62.922,6.21426 18.45903-2.38453 36.35382-17.37085 55.2845-7.8104 6.70963,3.38852 13.39622,6.79095 20.05346,10.26061z" fill="url(#linearGradient3819)"/>
<path d="m119.46448,849.27293c14.91285-11.52141 35.45821-20.64923 54.54682-11.81841 19.21931,8.89128 42.45352,7.02131 63.13553-.74722 25.37878-9.53272 50.08336,17.92025 77.53072,10.89059 23.14954-5.92892 46.62951-21.1986 71.32129-11.93243 21.99664,8.25475 46.15945,22.31604 70.03944,12.40033 16.97985-7.05056 36.64639-18.51306 55.12412-8.15283 16.93529,9.4954 41.25428-.50551 56.27685,3.24393-7.1645,6.95495-20.22637,1.61948-30.87866,4.90437-19.22963,5.92992-42.07451-17.45979-62.60736-6.2599-19.59271,10.68708-43.50319,17.27002-64.98617,7.45364-20.005-9.14103-43.73666-19.56814-65.79872-8.49453-25.98147,13.04087-58.39599,13.30212-85.4439-.15201-20.03103-9.9638-41.19751,9.02062-62.922,6.21426-18.45903-2.38453-36.35382-17.37085-55.2845-7.8104-6.70963,3.38852-13.39622,6.79095-20.05346,10.26061z" fill="url(#linearGradient3821)"/>
</g>
</svg>
